<svg aria-hidden="true" style="position: absolute; width: 0; height: 0; overflow: hidden;" version="1.1" xmlns="http://www.w3.org/2000/svg" xmlns:xlink="http://www.w3.org/1999/xlink">
<defs>
<symbol id="icon-antenna" viewBox="0 0 64 64">
<path d="M32,4 C16.5,4 4,16.5 4,32 C4,47.5 16.5,60 32,60 C47.5,60 60,47.5 60,32 C60,16.5 47.5,4 32,4 Z M32,10 C44.1,10 54,19.9 54,32 C54,44.1 44.1,54 32,54 C19.9,54 10,44.1 10,32 C10,19.9 19.9,10 32,10 Z M32,16 C23.2,16 16,23.2 16,32 C16,40.8 23.2,48 32,48 C40.8,48 48,40.8 48,32 C48,23.2 40.8,16 32,16 Z M32,22 C26.5,22 22,26.5 22,32 C22,37.5 26.5,42 32,42 C37.5,42 42,37.5 42,32 C42,26.5 37.5,22 32,22 Z M32,28 C29.8,28 28,29.8 28,32 C28,34.2 29.8,36 32,36 C34.2,36 36,34.2 36,32 C36,29.8 34.2,28 32,28 Z"></path>
</symbol>
<symbol id="icon-clock" viewBox="0 0 64 64">
<path d="M32,4C16.536,4,4,16.536,4,32s12.536,28,28,28s28-12.536,28-28S47.464,4,32,4z M32,56C18.745,56,8,45.255,8,32S18.745,8,32,8s24,10.745,24,24S45.255,56,32,56z" />
<path d="M34,16h-4v18.586l14.121,14.121l2.828-2.828L34,33.172V16z" />
</symbol>
<symbol id="icon-diagram" viewBox="0 0 64 64">
<path d="M12,48h8V24h-8V48z M28,48h8V16h-8V48z M44,48h8V32h-8V48z M4,52h56v4H4V52z" />
</symbol>
<symbol id="icon-astronaut" viewBox="0 0 64 64">
<path d="M32 4c-11.046 0-20 8.954-20 20v24h40v-24c0-11.046-8.954-20-20-20zm0 8c6.627 0 12 5.373 12 12s-5.373 12-12 12-12-5.373-12-12 5.373-12 12-12z" />
<path d="M48 52v8h8v-8h-8zm-32 0v8h-8v-8h8zm16 4a4 4 0 1 0 0-8 4 4 0 0 0 0 8z"/>
</symbol>
<symbol id="icon-instagram" viewBox="0 0 24 24">
<path d="M12 2.163c3.204 0 3.584.012 4.85.07 3.252.148 4.771 1.691 4.919 4.919.058 1.265.069 1.645.069 4.849 0 3.205-.012 3.584-.069 4.849-.149 3.225-1.664 4.771-4.919 4.919-1.266.058-1.644.07-4.85.07-3.204 0-3.584-.012-4.849-.07-3.26-.149-4.771-1.699-4.919-4.92-.058-1.265-.07-1.644-.07-4.849 0-3.204.013-3.583.07-4.849.149-3.227 1.664-4.771 4.919-4.919 1.266-.057 1.645-.069 4.849-.069zm0-2.163c-3.259 0-3.667.014-4.947.072-4.358.2-6.78 2.618-6.98 6.98-.059 1.281-.073 1.689-.073 4.948 0 3.259.014 3.668.072 4.948.2 4.358 2.618 6.78 6.98 6.98 1.281.058 1.689.072 4.948.072 3.259 0 3.668-.014 4.948-.072 4.354-.2 6.782-2.618 6.979-6.98.059-1.28.073-1.689.073-4.948 0-3.259-.014-3.667-.072-4.947-.196-4.354-2.617-6.78-6.979-6.98-1.281-.059-1.69-.073-4.949-.073zm0 5.838c-3.403 0-6.162 2.759-6.162 6.162s2.759 6.163 6.162 6.163 6.162-2.759 6.162-6.163c0-3.403-2.759-6.162-6.162-6.162zm0 10.162c-2.209 0-4-1.79-4-4 0-2.209 1.791-4 4-4s4 1.791 4 4c0 2.21-1.791 4-4 4zm6.406-11.845c-.796 0-1.441.645-1.441 1.44s.645 1.44 1.441 1.44c.795 0 1.439-.645 1.439-1.44s-.644-1.44-1.439-1.44z"/>
</symbol>
<symbol id="icon-twitter" viewBox="0 0 24 24">
<path d="M24 4.557c-.883.392-1.832.656-2.828.775 1.017-.609 1.798-1.574 2.165-2.724-.951.564-2.005.974-3.127 1.195-.897-.957-2.178-1.555-3.594-1.555-3.179 0-5.515 2.966-4.797 6.045-4.091-.205-7.719-2.165-10.148-5.144-1.29 2.213-.669 5.108 1.523 6.574-.806-.026-1.566-.247-2.229-.616-.054 2.281 1.581 4.415 3.949 4.89-.693.188-1.452.232-2.224.084.626 1.956 2.444 3.379 4.6 3.419-2.07 1.623-4.678 2.348-7.29 2.04 2.179 1.397 4.768 2.212 7.548 2.212 9.142 0 14.307-7.721 13.995-14.646.962-.695 1.797-1.562 2.457-2.549z"/>
</symbol>
<symbol id="icon-facebook" viewBox="0 0 24 24">
<path d="M9 8h-3v4h3v12h5v-12h3.642l.358-4h-4v-1.667c0-.955.192-1.333 1.115-1.333h2.885v-5h-3.808c-3.596 0-5.192 1.583-5.192 4.615v3.385z"/>
</symbol>
<symbol id="icon-linkedin" viewBox="0 0 24 24">
<path d="M4.98 3.5c0 1.381-1.11 2.5-2.48 2.5s-2.48-1.119-2.48-2.5c0-1.38 1.11-2.5 2.48-2.5s2.48 1.12 2.48 2.5zm.02 4.5h-5v16h5v-16zm7.982 0h-4.968v16h4.969v-8.399c0-4.67 6.029-5.052 6.029 0v8.399h4.988v-10.131c0-7.88-8.922-7.593-11.018-3.714v-2.155z"/>
</symbol>
<symbol id="icon-close" viewBox="0 0 24 24">
<path d="M19 6.41L17.59 5 12 10.59 6.41 5 5 6.41 10.59 12 5 17.59 6.41 19 12 13.41 17.59 19 19 17.59 13.41 12z" />
</symbol>
</defs>
</svg>
